<?xml version="1.0" encoding="UTF-8" standalone="no"?>
<svg xmlns:dc="http://purl.org/dc/elements/1.1/" xmlns:cc="http://creativecommons.org/ns#" xmlns:rdf="http://www.w3.org/1999/02/22-rdf-syntax-ns#" xmlns:svg="http://www.w3.org/2000/svg" xmlns="http://www.w3.org/2000/svg" xmlns:sodipodi="http://sodipodi.sourceforge.net/DTD/sodipodi-0.dtd" xmlns:inkscape="http://www.inkscape.org/namespaces/inkscape" version="1.1" id="Layer_1" width="1024px" height="1024px" xml:space="preserve" inkscape:version="0.48.4 r9939" sodipodi:docname="en.svg"><metadata id="metadata15"><rdf:RDF><cc:Work rdf:about=""><dc:format>image/svg+xml</dc:format><dc:type rdf:resource="http://purl.org/dc/dcmitype/StillImage" /><dc:title></dc:title></cc:Work></rdf:RDF></metadata><defs id="defs13" /><sodipodi:namedview pagecolor="#ffffff" bordercolor="#666666" borderopacity="1" objecttolerance="10" gridtolerance="10" guidetolerance="10" inkscape:pageopacity="0" inkscape:pageshadow="2" inkscape:window-width="1440" inkscape:window-height="844" id="namedview11" showgrid="false" inkscape:zoom="0.4609375" inkscape:cx="290.39421" inkscape:cy="496.05302" inkscape:window-x="-4" inkscape:window-y="-4" inkscape:window-maximized="1" inkscape:current-layer="Layer_1" />

<g id="PathID_2" transform="matrix(1.94927, 0, 0, 1.94927, 521.3, 506.2)" opacity="1">
</g>
<g id="PathID_3" transform="matrix(1.70762, 0, 0, 1.70762, 506.95, 685.75)" opacity="1">

</g>
<g id="PathID_4" transform="matrix(1.70762, 0, 0, 1.70762, 506.95, 685.75)" opacity="1">
</g>
<path style="fill:#404041;fill-opacity:1;stroke:none" d="M 32 32 L 32 992 L 992 992 L 992 32 L 32 32 z M 64 64 L 960 64 L 960 960 L 64 960 L 64 64 z M 335.625 96.21875 C 338.02456 117.8182 340.41235 149.0156 342.8125 189.8125 C 254.01752 189.81315 179.62134 187.42537 119.625 182.625 L 119.625 240.21875 C 179.62134 235.41964 254.01752 233.03186 342.8125 233.03125 L 342.8125 326.625 L 393.21875 326.625 L 393.21875 233.03125 L 623.59375 233.03125 L 623.59375 323 L 677.59375 323 L 677.59375 233.03125 C 766.38781 233.03186 840.78398 235.41964 900.78125 240.21875 L 900.78125 182.625 C 840.78398 187.42537 766.38781 189.81315 677.59375 189.8125 L 677.59375 143.03125 C 677.59312 128.63281 679.9809 120.21308 684.78125 117.8125 C 689.58032 115.41337 691.99935 112.41302 692 108.8125 C 691.99935 105.21345 688.38643 103.43823 681.1875 103.4375 C 661.98801 103.43823 640.40425 101.01921 616.40625 96.21875 C 621.20539 120.21806 623.59317 151.41545 623.59375 189.8125 L 393.21875 189.8125 L 393.21875 146.625 C 393.2184 132.22656 396.80007 122.61294 404 117.8125 C 408.79935 115.41337 411.21838 112.41302 411.21875 108.8125 C 411.21838 105.21345 407.60547 103.43823 400.40625 103.4375 C 378.80719 103.43823 357.22341 101.01921 335.625 96.21875 z M 476 265.40625 C 480.79929 299.00481 483.18706 337.39679 483.1875 380.59375 C 394.39238 380.59421 315.22063 377.01254 245.625 369.8125 L 245.625 585.78125 C 180.82868 583.38165 136.43599 580.99387 112.4375 578.59375 L 112.4375 639.78125 C 160.43456 632.58188 272.02883 629.00021 447.21875 629 C 423.21978 684.19691 380.60231 734.59029 319.40625 780.1875 C 258.20964 825.78483 192.81451 855.78833 123.21875 870.1875 C 152.01695 884.58661 171.21294 903.7826 180.8125 927.78125 C 272.00691 891.78332 344.01531 845.58417 396.8125 789.1875 C 449.60899 732.79092 485.61319 679.3972 504.8125 629 L 533.59375 629 C 567.19125 686.59677 609.19615 738.18404 659.59375 783.78125 C 709.99012 829.37858 778.3856 876.19029 864.78125 924.1875 C 874.37985 897.789 887.57514 874.98008 904.375 855.78125 C 844.37773 846.18181 783.17684 817.3722 720.78125 769.375 C 658.38431 721.37795 612.79774 674.59749 584 629 C 744.78984 631.40007 850.38341 634.98174 900.78125 639.78125 L 900.78125 578.59375 C 876.78183 580.99387 833.58304 583.38165 771.1875 585.78125 L 771.1875 369.8125 C 718.38993 374.61269 640.38084 378.19435 537.1875 380.59375 C 539.58687 334.99694 545.58757 307.41247 555.1875 297.8125 C 559.98671 293.01333 562.40573 287.6252 562.40625 281.625 C 562.40573 275.62592 558.79281 272.62557 551.59375 272.625 L 533.59375 276.21875 C 526.39369 276.21931 518.00521 275.02543 508.40625 272.625 C 498.80636 270.22571 487.99885 267.80668 476 265.40625 z M 299.625 420.21875 L 479.59375 420.21875 C 479.59332 487.41515 473.59262 542.58409 461.59375 585.78125 L 299.625 585.78125 L 299.625 420.21875 z M 537.1875 420.21875 L 713.59375 420.21875 L 713.59375 585.78125 L 519.1875 585.78125 C 528.78645 547.38381 534.78715 492.21486 537.1875 420.21875 z " id="rect2993" /><g style="font-size:204.78794861px;font-style:normal;font-variant:normal;font-weight:normal;font-stretch:normal;line-height:125%;letter-spacing:0px;word-spacing:0px;fill:#404041;fill-opacity:1;stroke:none;font-family:XHei;-inkscape-font-specification:XHei" id="text3787" />

</svg>