<?xml version="1.0" encoding="UTF-8" standalone="no"?>
<svg xmlns:dc="http://purl.org/dc/elements/1.1/" xmlns:cc="http://creativecommons.org/ns#" xmlns:rdf="http://www.w3.org/1999/02/22-rdf-syntax-ns#" xmlns:svg="http://www.w3.org/2000/svg" xmlns="http://www.w3.org/2000/svg" xmlns:sodipodi="http://sodipodi.sourceforge.net/DTD/sodipodi-0.dtd" xmlns:inkscape="http://www.inkscape.org/namespaces/inkscape" version="1.1" id="Layer_1" width="1024px" height="1024px" xml:space="preserve" inkscape:version="0.48.4 r9939" sodipodi:docname="weasel.svg"><metadata id="metadata15"><rdf:RDF><cc:Work rdf:about=""><dc:format>image/svg+xml</dc:format><dc:type rdf:resource="http://purl.org/dc/dcmitype/StillImage" /><dc:title></dc:title></cc:Work></rdf:RDF></metadata><defs id="defs13"><inkscape:path-effect effect="skeletal" id="path-effect2998" is_visible="true" pattern="M 0,0 1,0" copytype="single_stretched" prop_scale="1" scale_y_rel="false" spacing="0" normal_offset="0" tang_offset="0" prop_units="false" vertical_pattern="false" fuse_tolerance="0" /></defs><sodipodi:namedview pagecolor="#ffffff" bordercolor="#666666" borderopacity="1" objecttolerance="10" gridtolerance="10" guidetolerance="10" inkscape:pageopacity="0" inkscape:pageshadow="2" inkscape:window-width="1440" inkscape:window-height="844" id="namedview11" showgrid="false" inkscape:zoom="2.8284272" inkscape:cx="729.58288" inkscape:cy="869.67141" inkscape:window-x="-4" inkscape:window-y="-4" inkscape:window-maximized="1" inkscape:current-layer="Layer_1" />

<g id="PathID_2" transform="matrix(1.94927, 0, 0, 1.94927, 521.3, 506.2)" opacity="1">
</g>
<g id="PathID_3" transform="matrix(1.70762, 0, 0, 1.70762, 506.95, 685.75)" opacity="1">

</g>
<g id="PathID_4" transform="matrix(1.70762, 0, 0, 1.70762, 506.95, 685.75)" opacity="1">
</g>
<path style="fill:#404041;fill-opacity:1;stroke:none" d="M 32 32 L 32 992 L 992 992 L 992 32 L 32 32 z M 64 64 L 960 64 L 960 960 L 64 960 L 64 64 z " id="rect2993" /><path style="fill:#404041;fill-opacity:1;stroke:none" d="m 824.73589,94.547177 c -28.20699,-12.682951 -42.74947,5.769883 -45.943,27.185053 L 738,102 C 612,414 475.6591,595.03346 432,626 257.65279,667.55066 331.2414,822.86793 150.375,879.375 c 0,0 378.38361,176.8534 421.125,-157.125 99.85416,-176.92199 298.25,-557 298.25,-557 l -38.25,-19.5 c 13.18834,-14.27065 21.44288,-38.51987 -6.76411,-51.202823 z M 495.6875,649.9375 c 20.30726,0 36.75,16.47399 36.75,36.78125 0,20.30726 -16.44274,36.75 -36.75,36.75 -20.30726,0 -36.78125,-16.44274 -36.78125,-36.75 0,-20.30726 16.47399,-36.78125 36.78125,-36.78125 z" id="path2996" inkscape:connector-curvature="0" sodipodi:nodetypes="zccccccczsssss" /></svg>