<?xml version="1.0" encoding="UTF-8" standalone="no"?>
<svg xmlns:dc="http://purl.org/dc/elements/1.1/" xmlns:cc="http://creativecommons.org/ns#" xmlns:rdf="http://www.w3.org/1999/02/22-rdf-syntax-ns#" xmlns:svg="http://www.w3.org/2000/svg" xmlns="http://www.w3.org/2000/svg" xmlns:sodipodi="http://sodipodi.sourceforge.net/DTD/sodipodi-0.dtd" xmlns:inkscape="http://www.inkscape.org/namespaces/inkscape" version="1.1" id="Layer_1" width="1024px" height="1024px" xml:space="preserve" inkscape:version="0.48.4 r9939" sodipodi:docname="cn.svg"><metadata id="metadata15"><rdf:RDF><cc:Work rdf:about=""><dc:format>image/svg+xml</dc:format><dc:type rdf:resource="http://purl.org/dc/dcmitype/StillImage" /><dc:title /></cc:Work></rdf:RDF></metadata><defs id="defs13" /><sodipodi:namedview pagecolor="#ffffff" bordercolor="#666666" borderopacity="1" objecttolerance="10" gridtolerance="10" guidetolerance="10" inkscape:pageopacity="0" inkscape:pageshadow="2" inkscape:window-width="1440" inkscape:window-height="844" id="namedview11" showgrid="false" inkscape:zoom="0.4609375" inkscape:cx="300.19902" inkscape:cy="496.05302" inkscape:window-x="-4" inkscape:window-y="-4" inkscape:window-maximized="1" inkscape:current-layer="Layer_1" showguides="true" inkscape:guide-bbox="true" />

<g id="PathID_2" transform="matrix(1.94927, 0, 0, 1.94927, 521.3, 506.2)" opacity="1">
</g>
<g id="PathID_3" transform="matrix(1.70762, 0, 0, 1.70762, 506.95, 685.75)" opacity="1">

</g>
<g id="PathID_4" transform="matrix(1.70762, 0, 0, 1.70762, 506.95, 685.75)" opacity="1">
</g>
<path style="fill:#404041;fill-opacity:1;stroke:none" d="M 32 32 L 32 992 L 992 992 L 992 32 L 32 32 z M 64 64 L 960 64 L 960 960 L 64 960 L 64 64 z M 476.59375 81.90625 C 482.11496 112.56611 484.87456 154.89452 484.875 208.875 L 484.875 275.09375 C 326.01974 274.47659 221.44986 271.12112 171.15625 265 C 175.46114 293.20769 177.59363 324.78627 177.59375 359.75 L 177.59375 580.53125 C 177.59363 616.73096 175.46114 657.82386 171.15625 703.8125 L 235.5625 703.8125 L 235.5625 623.78125 L 484.875 623.78125 L 484.875 769.15625 C 484.87456 842.13552 482.11496 899.77349 476.59375 942.09375 L 553.875 942.09375 C 548.35285 899.77349 545.59325 842.13552 545.59375 769.15625 L 545.59375 623.78125 L 789.375 623.78125 L 789.375 696.46875 L 852.84375 696.46875 C 849.77329 633.91519 848.2492 590.0627 848.25 564.90625 L 848.25 378.125 C 848.2492 346.23091 849.77329 308.53726 852.84375 265 C 803.16689 271.12112 700.76074 274.47659 545.59375 275.09375 L 545.59375 150 C 545.59325 132.21908 549.26855 120.23374 556.625 114.09375 C 565.2158 109.19046 569.49948 104.15099 569.5 98.9375 C 569.49948 93.72539 560.76284 91.12569 543.28125 91.125 C 525.79868 91.12569 503.58385 88.046276 476.59375 81.90625 z M 235.5625 321.125 L 484.875 321.125 L 484.875 575.9375 L 235.5625 575.9375 L 235.5625 321.125 z M 545.59375 321.125 L 789.375 321.125 L 789.375 575.9375 L 545.59375 575.9375 L 545.59375 321.125 z " id="rect2993" /><g style="font-size:198.40028381px;font-style:normal;font-variant:normal;font-weight:normal;font-stretch:normal;line-height:125%;letter-spacing:0px;word-spacing:0px;fill:#404041;fill-opacity:1;stroke:none;font-family:XHei;-inkscape-font-specification:XHei Mono" id="text3783" transform="translate(20.139775,-11.979982)" />


</svg>