<?xml version="1.0" encoding="UTF-8" standalone="no"?>
<svg xmlns:dc="http://purl.org/dc/elements/1.1/" xmlns:cc="http://creativecommons.org/ns#" xmlns:rdf="http://www.w3.org/1999/02/22-rdf-syntax-ns#" xmlns:svg="http://www.w3.org/2000/svg" xmlns="http://www.w3.org/2000/svg" xmlns:sodipodi="http://sodipodi.sourceforge.net/DTD/sodipodi-0.dtd" xmlns:inkscape="http://www.inkscape.org/namespaces/inkscape" version="1.1" id="Layer_1" width="1024px" height="1024px" xml:space="preserve" inkscape:version="0.48.4 r9939" sodipodi:docname="deploy.svg"><metadata id="metadata15"><rdf:RDF><cc:Work rdf:about=""><dc:format>image/svg+xml</dc:format><dc:type rdf:resource="http://purl.org/dc/dcmitype/StillImage" /><dc:title></dc:title></cc:Work></rdf:RDF></metadata><defs id="defs13"><inkscape:path-effect effect="skeletal" id="path-effect3032" is_visible="true" pattern="M 0,0 1,0" copytype="single_stretched" prop_scale="1" scale_y_rel="false" spacing="0" normal_offset="0" tang_offset="0" prop_units="false" vertical_pattern="false" fuse_tolerance="0" /></defs><sodipodi:namedview pagecolor="#ffffff" bordercolor="#666666" borderopacity="1" objecttolerance="10" gridtolerance="10" guidetolerance="10" inkscape:pageopacity="0" inkscape:pageshadow="2" inkscape:window-width="1440" inkscape:window-height="844" id="namedview11" showgrid="false" inkscape:zoom="0.5" inkscape:cx="441.38008" inkscape:cy="468.45971" inkscape:window-x="-4" inkscape:window-y="-4" inkscape:window-maximized="1" inkscape:current-layer="Layer_1" />

<g id="PathID_2" transform="matrix(1.94927, 0, 0, 1.94927, 521.3, 506.2)" opacity="1">
</g>
<g id="PathID_3" transform="matrix(1.70762, 0, 0, 1.70762, 506.95, 685.75)" opacity="1">

</g>
<g id="PathID_4" transform="matrix(1.70762, 0, 0, 1.70762, 506.95, 685.75)" opacity="1">
</g>
<path style="fill:#404041;fill-opacity:1;stroke:none" d="M 32 32 L 32 992 L 992 992 L 992 32 L 32 32 z M 64 64 L 960 64 L 960 960 L 64 960 L 64 64 z M 930.71875 92.875 L 803.375 216.53125 C 803.375 216.53125 716.76334 125.31924 585.25 101.71875 C 453.73662 78.11825 227.8002 94.06371 91.59375 342.09375 L 213.15625 390.15625 C 213.15625 390.15625 289.61505 214.266 486 214.71875 C 589.43308 214.95721 658.29218 246.28592 713.9375 300.34375 C 582.71419 420.38393 581.875 421.15625 581.875 421.15625 L 932.40625 421.15625 L 930.71875 92.875 z M 91.59375 602.84375 L 93.28125 931.125 L 220.625 807.46875 C 220.625 807.46875 307.23665 898.68076 438.75 922.28125 C 570.26337 945.88175 796.1998 929.93632 932.40625 681.90625 L 810.84375 633.84375 C 810.84375 633.84375 734.38494 809.734 538 809.28125 C 434.56691 809.04279 365.70782 777.71408 310.0625 723.65625 C 441.28581 603.61607 442.125 602.84375 442.125 602.84375 L 91.59375 602.84375 z " id="rect2993" /></svg>